<svg xmlns="http://www.w3.org/2000/svg" viewBox="0 0 1200 420" width="1200" height="420" role="img" aria-label="An illustration of DhinaSuthra's visual language: a rhythm score ring, a 24-hour day ribbon with one episode inspected, and a week heatmap">
  <defs>
    <linearGradient id="card" x1="0" y1="0" x2="0" y2="1">
      <stop offset="0%" stop-color="#141E36"/>
      <stop offset="100%" stop-color="#0C1424"/>
    </linearGradient>
    <linearGradient id="ring" x1="0" y1="0" x2="1" y2="1">
      <stop offset="0%" stop-color="#34D399"/>
      <stop offset="60%" stop-color="#5EEAD4"/>
      <stop offset="100%" stop-color="#FFD98A"/>
    </linearGradient>
    <filter id="soft" x="-60%" y="-60%" width="220%" height="220%"><feGaussianBlur stdDeviation="7"/></filter>
  </defs>
  <rect width="1200" height="420" fill="#080D1A" rx="26"/>
  <rect x="20" y="10" width="370" height="400" rx="24" fill="url(#card)"/>
  <rect x="20.75" y="10.75" width="368.5" height="398.5" rx="23.25" fill="none" stroke="#FFFFFF" stroke-opacity="0.09"/>
  <rect x="415" y="10" width="370" height="400" rx="24" fill="url(#card)"/>
  <rect x="415.75" y="10.75" width="368.5" height="398.5" rx="23.25" fill="none" stroke="#FFFFFF" stroke-opacity="0.09"/>
  <rect x="810" y="10" width="370" height="400" rx="24" fill="url(#card)"/>
  <rect x="810.75" y="10.75" width="368.5" height="398.5" rx="23.25" fill="none" stroke="#FFFFFF" stroke-opacity="0.09"/>
  <text x="48" y="52" font-family="-apple-system, 'Segoe UI', Roboto, Helvetica, Arial, sans-serif" font-size="12" fill="#6D7B96" letter-spacing="1.2">TODAY</text>
  <circle cx="205" cy="158" r="64" fill="none" stroke="#FFFFFF" stroke-opacity="0.06" stroke-width="15"/>
  <g transform="rotate(-90 205 158)">
    <circle cx="205" cy="158" r="64" fill="none" stroke="url(#ring)" stroke-opacity="0.18" stroke-width="32" stroke-linecap="round" stroke-dasharray="337.8 402.1" filter="url(#soft)"/>
    <circle cx="205" cy="158" r="64" fill="none" stroke="url(#ring)" stroke-width="15" stroke-linecap="round" stroke-dasharray="337.8 402.1"/>
  </g>
  <text x="205" y="172" font-family="-apple-system, 'Segoe UI', Roboto, Helvetica, Arial, sans-serif" font-size="52" fill="#F3F5FB" font-weight="700" text-anchor="middle" letter-spacing="-2">84</text>
  <text x="205" y="194" font-family="-apple-system, 'Segoe UI', Roboto, Helvetica, Arial, sans-serif" font-size="12" fill="#6D7B96" text-anchor="middle" letter-spacing="1.2">RHYTHM</text>
  <text x="48" y="290" font-family="-apple-system, 'Segoe UI', Roboto, Helvetica, Arial, sans-serif" font-size="17" fill="#E9EEF9" font-weight="600">Closely following</text>
  <text x="48" y="313" font-family="-apple-system, 'Segoe UI', Roboto, Helvetica, Arial, sans-serif" font-size="17" fill="#E9EEF9" font-weight="600">your usual rhythm</text>
  <text x="48" y="345" font-family="-apple-system, 'Segoe UI', Roboto, Helvetica, Arial, sans-serif" font-size="14" fill="#93A0BA">Weighted across 6 learned patterns,</text>
  <text x="48" y="365" font-family="-apple-system, 'Segoe UI', Roboto, Helvetica, Arial, sans-serif" font-size="14" fill="#93A0BA">each by how confident it is.</text>
  <rect x="48" y="378" width="66" height="20" rx="7" fill="#FFFFFF" fill-opacity="0.06"/>
  <text x="81" y="392" font-family="-apple-system, 'Segoe UI', Roboto, Helvetica, Arial, sans-serif" font-size="11" fill="#6D7B96" text-anchor="middle">6 patterns</text>
  <rect x="122" y="378" width="66" height="20" rx="7" fill="#FFFFFF" fill-opacity="0.06"/>
  <text x="155" y="392" font-family="-apple-system, 'Segoe UI', Roboto, Helvetica, Arial, sans-serif" font-size="11" fill="#6D7B96" text-anchor="middle">Thu</text>
  <text x="443" y="52" font-family="-apple-system, 'Segoe UI', Roboto, Helvetica, Arial, sans-serif" font-size="12" fill="#6D7B96" letter-spacing="1.2">THE THREAD</text>
  <rect x="440" y="78" width="320" height="52" rx="26" fill="#FFFFFF" fill-opacity="0.045"/>
  <rect x="440.0" y="83" width="96.0" height="42" rx="21" fill="#8B7CF6"/>
  <rect x="536.0" y="83" width="19.2" height="42" rx="21" fill="#5EEAD4"/>
  <rect x="555.2" y="83" width="16.0" height="42" rx="21" fill="#FBBF24"/>
  <rect x="571.2" y="83" width="70.4" height="42" rx="21" fill="#F59E0B"/>
  <rect x="641.6" y="83" width="12.8" height="42" rx="21" fill="#34D399"/>
  <rect x="654.4" y="83" width="41.6" height="42" rx="21" fill="#F59E0B"/>
  <rect x="696.0" y="83" width="16.0" height="42" rx="21" fill="#FBBF24"/>
  <rect x="712.0" y="83" width="48.0" height="42" rx="21" fill="#3BA9FF"/>
  <rect x="638.6" y="74" width="18.8" height="60" rx="26" fill="none" stroke="#FFFFFF" stroke-opacity="0.9" stroke-width="2"/>
  <line x1="638.4" y1="70" x2="638.4" y2="138" stroke="#F5B33C" stroke-width="2.5" stroke-linecap="round"/>
  <circle cx="638.4" cy="70" r="4" fill="#F5B33C"/>
  <text x="440.0" y="152" font-family="-apple-system, 'Segoe UI', Roboto, Helvetica, Arial, sans-serif" font-size="12" fill="#5C6982">00</text>
  <text x="520.0" y="152" font-family="-apple-system, 'Segoe UI', Roboto, Helvetica, Arial, sans-serif" font-size="12" fill="#5C6982">06</text>
  <text x="600.0" y="152" font-family="-apple-system, 'Segoe UI', Roboto, Helvetica, Arial, sans-serif" font-size="12" fill="#5C6982">12</text>
  <text x="680.0" y="152" font-family="-apple-system, 'Segoe UI', Roboto, Helvetica, Arial, sans-serif" font-size="12" fill="#5C6982">18</text>
  <rect x="440" y="176" width="320" height="152" rx="18" fill="#FFFFFF" fill-opacity="0.04"/>
  <circle cx="464" cy="204" r="6" fill="#34D399"/>
  <text x="480" y="209" font-family="-apple-system, 'Segoe UI', Roboto, Helvetica, Arial, sans-serif" font-size="17" fill="#E9EEF9" font-weight="600">Lunch</text>
  <text x="740" y="209" font-family="-apple-system, 'Segoe UI', Roboto, Helvetica, Arial, sans-serif" font-size="14" fill="#93A0BA" text-anchor="end">39m</text>
  <text x="464" y="232" font-family="-apple-system, 'Segoe UI', Roboto, Helvetica, Arial, sans-serif" font-size="12.5" fill="#7C89A5">13:24 – 14:03 · Office · Inferred</text>
  <text x="464" y="262" font-family="-apple-system, 'Segoe UI', Roboto, Helvetica, Arial, sans-serif" font-size="12" fill="#6D7B96" letter-spacing="1.2">WHY DHINASUTHRA THINKS SO</text>
  <text x="464" y="285" font-family="-apple-system, 'Segoe UI', Roboto, Helvetica, Arial, sans-serif" font-size="12.5" fill="#7C89A5">started 4m from your usual 13:20</text>
  <text x="464" y="305" font-family="-apple-system, 'Segoe UI', Roboto, Helvetica, Arial, sans-serif" font-size="12.5" fill="#7C89A5">seen on 12 comparable days</text>
  <text x="464" y="325" font-family="-apple-system, 'Segoe UI', Roboto, Helvetica, Arial, sans-serif" font-size="12.5" fill="#7C89A5">work either side, same office</text>
  <text x="443" y="365" font-family="-apple-system, 'Segoe UI', Roboto, Helvetica, Arial, sans-serif" font-size="14" fill="#93A0BA">Tap any block of your day and it shows</text>
  <text x="443" y="385" font-family="-apple-system, 'Segoe UI', Roboto, Helvetica, Arial, sans-serif" font-size="14" fill="#93A0BA">exactly what led it there.</text>
  <text x="838" y="52" font-family="-apple-system, 'Segoe UI', Roboto, Helvetica, Arial, sans-serif" font-size="12" fill="#6D7B96" letter-spacing="1.2">YOUR WEEK</text>
  <text x="838" y="113" font-family="-apple-system, 'Segoe UI', Roboto, Helvetica, Arial, sans-serif" font-size="12" fill="#6D7B96">Mon</text>
  <rect x="866" y="96" width="24" height="24" rx="5" fill="#8B7CF6" fill-opacity="0.55"/>
  <rect x="893" y="96" width="24" height="24" rx="5" fill="#8B7CF6" fill-opacity="0.78"/>
  <rect x="920" y="96" width="24" height="24" rx="5" fill="#8B7CF6" fill-opacity="1.00"/>
  <rect x="947" y="96" width="24" height="24" rx="5" fill="#5EEAD4" fill-opacity="0.55"/>
  <rect x="974" y="96" width="24" height="24" rx="5" fill="#FBBF24" fill-opacity="0.78"/>
  <rect x="1001" y="96" width="24" height="24" rx="5" fill="#F59E0B" fill-opacity="1.00"/>
  <rect x="1028" y="96" width="24" height="24" rx="5" fill="#F59E0B" fill-opacity="0.55"/>
  <rect x="1055" y="96" width="24" height="24" rx="5" fill="#34D399" fill-opacity="0.78"/>
  <rect x="1082" y="96" width="24" height="24" rx="5" fill="#F59E0B" fill-opacity="1.00"/>
  <rect x="1109" y="96" width="24" height="24" rx="5" fill="#F59E0B" fill-opacity="0.55"/>
  <rect x="1136" y="96" width="24" height="24" rx="5" fill="#FBBF24" fill-opacity="0.78"/>
  <rect x="1163" y="96" width="24" height="24" rx="5" fill="#3BA9FF" fill-opacity="1.00"/>
  <text x="838" y="140" font-family="-apple-system, 'Segoe UI', Roboto, Helvetica, Arial, sans-serif" font-size="12" fill="#6D7B96">Tue</text>
  <rect x="866" y="123" width="24" height="24" rx="5" fill="#8B7CF6" fill-opacity="0.78"/>
  <rect x="893" y="123" width="24" height="24" rx="5" fill="#8B7CF6" fill-opacity="1.00"/>
  <rect x="920" y="123" width="24" height="24" rx="5" fill="#8B7CF6" fill-opacity="0.55"/>
  <rect x="947" y="123" width="24" height="24" rx="5" fill="#5EEAD4" fill-opacity="0.78"/>
  <rect x="974" y="123" width="24" height="24" rx="5" fill="#FBBF24" fill-opacity="1.00"/>
  <rect x="1001" y="123" width="24" height="24" rx="5" fill="#F59E0B" fill-opacity="0.55"/>
  <rect x="1028" y="123" width="24" height="24" rx="5" fill="#F59E0B" fill-opacity="0.78"/>
  <rect x="1055" y="123" width="24" height="24" rx="5" fill="#34D399" fill-opacity="1.00"/>
  <rect x="1082" y="123" width="24" height="24" rx="5" fill="#F59E0B" fill-opacity="0.55"/>
  <rect x="1109" y="123" width="24" height="24" rx="5" fill="#F59E0B" fill-opacity="0.78"/>
  <rect x="1136" y="123" width="24" height="24" rx="5" fill="#FBBF24" fill-opacity="1.00"/>
  <rect x="1163" y="123" width="24" height="24" rx="5" fill="#3BA9FF" fill-opacity="0.55"/>
  <text x="838" y="167" font-family="-apple-system, 'Segoe UI', Roboto, Helvetica, Arial, sans-serif" font-size="12" fill="#6D7B96">Wed</text>
  <rect x="866" y="150" width="24" height="24" rx="5" fill="#8B7CF6" fill-opacity="1.00"/>
  <rect x="893" y="150" width="24" height="24" rx="5" fill="#8B7CF6" fill-opacity="0.55"/>
  <rect x="920" y="150" width="24" height="24" rx="5" fill="#8B7CF6" fill-opacity="0.78"/>
  <rect x="947" y="150" width="24" height="24" rx="5" fill="#5EEAD4" fill-opacity="1.00"/>
  <rect x="974" y="150" width="24" height="24" rx="5" fill="#FBBF24" fill-opacity="0.55"/>
  <rect x="1001" y="150" width="24" height="24" rx="5" fill="#F59E0B" fill-opacity="0.78"/>
  <rect x="1028" y="150" width="24" height="24" rx="5" fill="#F59E0B" fill-opacity="1.00"/>
  <rect x="1055" y="150" width="24" height="24" rx="5" fill="#34D399" fill-opacity="0.55"/>
  <rect x="1082" y="150" width="24" height="24" rx="5" fill="#F59E0B" fill-opacity="0.78"/>
  <rect x="1109" y="150" width="24" height="24" rx="5" fill="#F59E0B" fill-opacity="1.00"/>
  <rect x="1136" y="150" width="24" height="24" rx="5" fill="#FBBF24" fill-opacity="0.55"/>
  <rect x="1163" y="150" width="24" height="24" rx="5" fill="#3BA9FF" fill-opacity="0.78"/>
  <text x="838" y="194" font-family="-apple-system, 'Segoe UI', Roboto, Helvetica, Arial, sans-serif" font-size="12" fill="#6D7B96">Thu</text>
  <rect x="866" y="177" width="24" height="24" rx="5" fill="#8B7CF6" fill-opacity="0.55"/>
  <rect x="893" y="177" width="24" height="24" rx="5" fill="#8B7CF6" fill-opacity="0.78"/>
  <rect x="920" y="177" width="24" height="24" rx="5" fill="#8B7CF6" fill-opacity="1.00"/>
  <rect x="947" y="177" width="24" height="24" rx="5" fill="#5EEAD4" fill-opacity="0.55"/>
  <rect x="974" y="177" width="24" height="24" rx="5" fill="#FBBF24" fill-opacity="0.78"/>
  <rect x="1001" y="177" width="24" height="24" rx="5" fill="#F59E0B" fill-opacity="1.00"/>
  <rect x="1028" y="177" width="24" height="24" rx="5" fill="#F59E0B" fill-opacity="0.55"/>
  <rect x="1055" y="177" width="24" height="24" rx="5" fill="#34D399" fill-opacity="0.78"/>
  <rect x="1082" y="177" width="24" height="24" rx="5" fill="#F59E0B" fill-opacity="1.00"/>
  <rect x="1109" y="177" width="24" height="24" rx="5" fill="#F59E0B" fill-opacity="0.55"/>
  <rect x="1136" y="177" width="24" height="24" rx="5" fill="#FBBF24" fill-opacity="0.78"/>
  <rect x="1163" y="177" width="24" height="24" rx="5" fill="#3BA9FF" fill-opacity="1.00"/>
  <text x="838" y="221" font-family="-apple-system, 'Segoe UI', Roboto, Helvetica, Arial, sans-serif" font-size="12" fill="#6D7B96">Fri</text>
  <rect x="866" y="204" width="24" height="24" rx="5" fill="#8B7CF6" fill-opacity="0.78"/>
  <rect x="893" y="204" width="24" height="24" rx="5" fill="#8B7CF6" fill-opacity="1.00"/>
  <rect x="920" y="204" width="24" height="24" rx="5" fill="#8B7CF6" fill-opacity="0.55"/>
  <rect x="947" y="204" width="24" height="24" rx="5" fill="#5EEAD4" fill-opacity="0.78"/>
  <rect x="974" y="204" width="24" height="24" rx="5" fill="#FBBF24" fill-opacity="1.00"/>
  <rect x="1001" y="204" width="24" height="24" rx="5" fill="#F59E0B" fill-opacity="0.55"/>
  <rect x="1028" y="204" width="24" height="24" rx="5" fill="#F59E0B" fill-opacity="0.78"/>
  <rect x="1055" y="204" width="24" height="24" rx="5" fill="#34D399" fill-opacity="1.00"/>
  <rect x="1082" y="204" width="24" height="24" rx="5" fill="#F59E0B" fill-opacity="0.55"/>
  <rect x="1109" y="204" width="24" height="24" rx="5" fill="#F59E0B" fill-opacity="0.78"/>
  <rect x="1136" y="204" width="24" height="24" rx="5" fill="#FBBF24" fill-opacity="1.00"/>
  <rect x="1163" y="204" width="24" height="24" rx="5" fill="#3BA9FF" fill-opacity="0.55"/>
  <text x="838" y="248" font-family="-apple-system, 'Segoe UI', Roboto, Helvetica, Arial, sans-serif" font-size="12" fill="#6D7B96">Sat</text>
  <rect x="866" y="231" width="24" height="24" rx="5" fill="#8B7CF6" fill-opacity="1.00"/>
  <rect x="893" y="231" width="24" height="24" rx="5" fill="#8B7CF6" fill-opacity="0.55"/>
  <rect x="920" y="231" width="24" height="24" rx="5" fill="#8B7CF6" fill-opacity="0.78"/>
  <rect x="947" y="231" width="24" height="24" rx="5" fill="#5EEAD4" fill-opacity="1.00"/>
  <rect x="974" y="231" width="24" height="24" rx="5" fill="#5EEAD4" fill-opacity="0.55"/>
  <rect x="1001" y="231" width="24" height="24" rx="5" fill="#3BA9FF" fill-opacity="0.78"/>
  <rect x="1028" y="231" width="24" height="24" rx="5" fill="#3BA9FF" fill-opacity="1.00"/>
  <rect x="1055" y="231" width="24" height="24" rx="5" fill="#3BA9FF" fill-opacity="0.55"/>
  <rect x="1082" y="231" width="24" height="24" rx="5" fill="#3BA9FF" fill-opacity="0.78"/>
  <rect x="1109" y="231" width="24" height="24" rx="5" fill="#34D399" fill-opacity="1.00"/>
  <rect x="1136" y="231" width="24" height="24" rx="5" fill="#3BA9FF" fill-opacity="0.55"/>
  <rect x="1163" y="231" width="24" height="24" rx="5" fill="#3BA9FF" fill-opacity="0.78"/>
  <text x="838" y="275" font-family="-apple-system, 'Segoe UI', Roboto, Helvetica, Arial, sans-serif" font-size="12" fill="#6D7B96">Sun</text>
  <rect x="866" y="258" width="24" height="24" rx="5" fill="#8B7CF6" fill-opacity="0.55"/>
  <rect x="893" y="258" width="24" height="24" rx="5" fill="#8B7CF6" fill-opacity="0.78"/>
  <rect x="920" y="258" width="24" height="24" rx="5" fill="#8B7CF6" fill-opacity="1.00"/>
  <rect x="947" y="258" width="24" height="24" rx="5" fill="#5EEAD4" fill-opacity="0.55"/>
  <rect x="974" y="258" width="24" height="24" rx="5" fill="#5EEAD4" fill-opacity="0.78"/>
  <rect x="1001" y="258" width="24" height="24" rx="5" fill="#3BA9FF" fill-opacity="1.00"/>
  <rect x="1028" y="258" width="24" height="24" rx="5" fill="#3BA9FF" fill-opacity="0.55"/>
  <rect x="1055" y="258" width="24" height="24" rx="5" fill="#3BA9FF" fill-opacity="0.78"/>
  <rect x="1082" y="258" width="24" height="24" rx="5" fill="#3BA9FF" fill-opacity="1.00"/>
  <rect x="1109" y="258" width="24" height="24" rx="5" fill="#34D399" fill-opacity="0.55"/>
  <rect x="1136" y="258" width="24" height="24" rx="5" fill="#3BA9FF" fill-opacity="0.78"/>
  <rect x="1163" y="258" width="24" height="24" rx="5" fill="#3BA9FF" fill-opacity="1.00"/>
  <text x="866" y="307" font-family="-apple-system, 'Segoe UI', Roboto, Helvetica, Arial, sans-serif" font-size="12" fill="#5C6982">00</text>
  <text x="1028" y="307" font-family="-apple-system, 'Segoe UI', Roboto, Helvetica, Arial, sans-serif" font-size="12" fill="#5C6982">12</text>
  <text x="1163" y="307" font-family="-apple-system, 'Segoe UI', Roboto, Helvetica, Arial, sans-serif" font-size="12" fill="#5C6982">22</text>
  <text x="838" y="330" font-family="-apple-system, 'Segoe UI', Roboto, Helvetica, Arial, sans-serif" font-size="17" fill="#E9EEF9" font-weight="600">Your whole week,</text>
  <text x="838" y="353" font-family="-apple-system, 'Segoe UI', Roboto, Helvetica, Arial, sans-serif" font-size="17" fill="#E9EEF9" font-weight="600">one glance.</text>
  <text x="838" y="383" font-family="-apple-system, 'Segoe UI', Roboto, Helvetica, Arial, sans-serif" font-size="14" fill="#93A0BA">Every cell is an hour, coloured by</text>
  <text x="838" y="403" font-family="-apple-system, 'Segoe UI', Roboto, Helvetica, Arial, sans-serif" font-size="14" fill="#93A0BA">what filled most of it.</text>
</svg>
